<mxfile host="65bd71144e">
    <diagram id="lcEg7BpMxLv4Kq5Sm65Q" name="PÃ¡gina-1">
        <mxGraphModel dx="5656" dy="922" grid="1" gridSize="10" guides="1" tooltips="1" connect="1" arrows="1" fold="1" page="1" pageScale="1" pageWidth="5000" pageHeight="5000" math="0" shadow="0">
            <root>
                <mxCell id="0"/>
                <mxCell id="1" parent="0"/>
                <mxCell id="24" style="edgeStyle=none;html=1;" parent="1" source="2" edge="1">
                    <mxGeometry relative="1" as="geometry">
                        <mxPoint x="300" y="150" as="targetPoint"/>
                    </mxGeometry>
                </mxCell>
                <mxCell id="2" value="INICIO" style="ellipse;whiteSpace=wrap;html=1;fillColor=#f8cecc;strokeColor=#b85450;" parent="1" vertex="1">
                    <mxGeometry x="240" y="40" width="120" height="80" as="geometry"/>
                </mxCell>
                <mxCell id="25" style="edgeStyle=none;html=1;entryX=0.5;entryY=0;entryDx=0;entryDy=0;" parent="1" source="5" target="7" edge="1">
                    <mxGeometry relative="1" as="geometry"/>
                </mxCell>
                <mxCell id="5" value="ANCHURA_VENTANA = 600&lt;div&gt;ALTO_VENTANA&amp;nbsp; = 600&lt;/div&gt;&lt;div&gt;&lt;br&gt;&lt;/div&gt;" style="rounded=0;whiteSpace=wrap;html=1;fillColor=#ffe6cc;strokeColor=#d79b00;" parent="1" vertex="1">
                    <mxGeometry x="205" y="150" width="190" height="60" as="geometry"/>
                </mxCell>
                <mxCell id="27" style="edgeStyle=none;html=1;exitX=0.5;exitY=1;exitDx=0;exitDy=0;" parent="1" source="7" target="10" edge="1">
                    <mxGeometry relative="1" as="geometry"/>
                </mxCell>
                <mxCell id="7" value="&lt;font&gt;XX_COHETE = 210&lt;/font&gt;&lt;div&gt;&lt;font&gt;YY_COHETE = 300&lt;/font&gt;&lt;/div&gt;&lt;div&gt;&lt;font&gt;ALTURA_COHETE = 32&lt;/font&gt;&lt;/div&gt;&lt;div&gt;&lt;font&gt;ANCHURA_COHETE = 32&lt;/font&gt;&lt;/div&gt;&lt;div&gt;&lt;font&gt;MOVIMIENTO_XX_ = 0&lt;/font&gt;&lt;/div&gt;&lt;div&gt;&lt;br&gt;&lt;/div&gt;" style="rounded=0;whiteSpace=wrap;html=1;fillColor=#ffe6cc;strokeColor=#d79b00;" parent="1" vertex="1">
                    <mxGeometry x="200" y="260" width="200" height="80" as="geometry"/>
                </mxCell>
                <mxCell id="28" style="edgeStyle=none;html=1;entryX=0.5;entryY=0;entryDx=0;entryDy=0;" parent="1" source="10" target="17" edge="1">
                    <mxGeometry relative="1" as="geometry"/>
                </mxCell>
                <mxCell id="10" value="&lt;font&gt;XX_PLANETA = randint(30, 130)&amp;nbsp;&lt;/font&gt;&lt;div&gt;&lt;font&gt;YY_PLANETA = 20&lt;/font&gt;&lt;/div&gt;&lt;div&gt;&lt;span style=&quot;background-color: transparent;&quot;&gt;&lt;font&gt;&amp;nbsp;ALTURA_PLANETA = 32 ANCHURA_PLANETA = 32 XX_ENTRE_PLANETAS = 350 YY_ENTRE_PLANETA = 125 VELOCIDAD_PLANETAS = 1&lt;/font&gt;&lt;/span&gt;&lt;/div&gt;" style="whiteSpace=wrap;html=1;fillColor=#ffe6cc;strokeColor=#d79b00;" parent="1" vertex="1">
                    <mxGeometry x="220" y="370" width="160" height="180" as="geometry"/>
                </mxCell>
                <mxCell id="29" style="edgeStyle=none;html=1;" parent="1" source="17" target="19" edge="1">
                    <mxGeometry relative="1" as="geometry"/>
                </mxCell>
                <mxCell id="17" value="while not PARAR_JUEGO" style="rhombus;whiteSpace=wrap;html=1;fillColor=light-dark(#e9beba, #442724);strokeColor=#ae4132;" parent="1" vertex="1">
                    <mxGeometry x="240" y="585" width="120" height="90" as="geometry"/>
                </mxCell>
                <mxCell id="19" value="for event in pygame.event.get():" style="shape=hexagon;perimeter=hexagonPerimeter2;whiteSpace=wrap;html=1;fixedSize=1;fillColor=#fad7ac;strokeColor=#b46504;" parent="1" vertex="1">
                    <mxGeometry x="240" y="700" width="120" height="80" as="geometry"/>
                </mxCell>
                <mxCell id="35" style="edgeStyle=none;html=1;entryX=0.5;entryY=0;entryDx=0;entryDy=0;" parent="1" source="20" target="23" edge="1">
                    <mxGeometry relative="1" as="geometry">
                        <Array as="points">
                            <mxPoint x="475" y="880"/>
                        </Array>
                    </mxGeometry>
                </mxCell>
                <mxCell id="59" style="edgeStyle=none;html=1;" parent="1" source="20" edge="1">
                    <mxGeometry relative="1" as="geometry">
                        <mxPoint x="-342.85714285714283" y="980" as="targetPoint"/>
                        <Array as="points">
                            <mxPoint x="40" y="880"/>
                            <mxPoint x="-343" y="880"/>
                        </Array>
                    </mxGeometry>
                </mxCell>
                <UserObject label="&lt;p&gt;&amp;nbsp;event.type == pygame.KEYDOWN:&lt;/p&gt;&lt;p&gt;&lt;/p&gt;" link="&lt;p&gt;if event.type == pygame.KEYDOWN:&lt;/p&gt;&lt;p&gt;&lt;/p&gt;" id="20">
                    <mxCell style="rhombus;whiteSpace=wrap;html=1;fillColor=#b1ddf0;strokeColor=#10739e;" parent="1" vertex="1">
                        <mxGeometry x="225" y="820" width="135" height="120" as="geometry"/>
                    </mxCell>
                </UserObject>
                <mxCell id="37" style="edgeStyle=none;html=1;" parent="1" source="23" edge="1">
                    <mxGeometry relative="1" as="geometry">
                        <mxPoint x="752" y="1040" as="targetPoint"/>
                        <Array as="points">
                            <mxPoint x="750" y="990"/>
                        </Array>
                    </mxGeometry>
                </mxCell>
                <mxCell id="42" style="edgeStyle=none;html=1;" parent="1" source="23" edge="1">
                    <mxGeometry relative="1" as="geometry">
                        <mxPoint x="480" y="1240" as="targetPoint"/>
                        <Array as="points">
                            <mxPoint x="210" y="990"/>
                            <mxPoint x="210" y="1170"/>
                            <mxPoint x="480" y="1170"/>
                        </Array>
                    </mxGeometry>
                </mxCell>
                <mxCell id="127" style="edgeStyle=none;html=1;" parent="1" source="23" target="128" edge="1">
                    <mxGeometry relative="1" as="geometry">
                        <mxPoint x="1180" y="990" as="targetPoint"/>
                    </mxGeometry>
                </mxCell>
                <UserObject label="&lt;p&gt;&lt;font&gt;&amp;nbsp;event.key == pygame.K_ESCAPE&lt;/font&gt;&lt;/p&gt;&lt;p&gt;&lt;/p&gt;" link="&lt;p&gt;if event.type == pygame.KEYDOWN:&lt;/p&gt;&lt;p&gt;&lt;/p&gt;" id="23">
                    <mxCell style="rhombus;whiteSpace=wrap;html=1;fillColor=#b1ddf0;strokeColor=#10739e;" parent="1" vertex="1">
                        <mxGeometry x="360" y="910" width="230" height="160" as="geometry"/>
                    </mxCell>
                </UserObject>
                <mxCell id="30" style="edgeStyle=none;html=1;entryX=0.53;entryY=0.058;entryDx=0;entryDy=0;entryPerimeter=0;" parent="1" source="19" target="20" edge="1">
                    <mxGeometry relative="1" as="geometry"/>
                </mxCell>
                <mxCell id="36" value="true" style="text;html=1;align=center;verticalAlign=middle;resizable=0;points=[];autosize=1;strokeColor=none;fillColor=none;" parent="1" vertex="1">
                    <mxGeometry x="370" y="848" width="40" height="30" as="geometry"/>
                </mxCell>
                <mxCell id="56" style="edgeStyle=none;html=1;" parent="1" source="39" edge="1">
                    <mxGeometry relative="1" as="geometry">
                        <mxPoint x="490" y="1570" as="targetPoint"/>
                        <Array as="points">
                            <mxPoint x="240" y="1320"/>
                            <mxPoint x="240" y="1530"/>
                            <mxPoint x="490" y="1530"/>
                        </Array>
                    </mxGeometry>
                </mxCell>
                <mxCell id="57" style="edgeStyle=none;html=1;entryX=0.5;entryY=0;entryDx=0;entryDy=0;" parent="1" source="39" target="43" edge="1">
                    <mxGeometry relative="1" as="geometry">
                        <Array as="points">
                            <mxPoint x="740" y="1320"/>
                        </Array>
                    </mxGeometry>
                </mxCell>
                <UserObject label="&lt;p&gt;&lt;font&gt;if event.key == pygame.K_ESCAPE:&amp;nbsp;&lt;span style=&quot;background-color: transparent;&quot;&gt;PARAR_JUEGO = True&lt;/span&gt;&lt;/font&gt;&lt;/p&gt;&lt;p&gt;&lt;/p&gt;" link="&lt;p&gt;if event.type == pygame.KEYDOWN:&lt;/p&gt;&lt;p&gt;&lt;/p&gt;" id="39">
                    <mxCell style="rhombus;whiteSpace=wrap;html=1;fillColor=#b1ddf0;strokeColor=#10739e;" parent="1" vertex="1">
                        <mxGeometry x="370" y="1240" width="230" height="160" as="geometry"/>
                    </mxCell>
                </UserObject>
                <mxCell id="55" style="edgeStyle=none;html=1;" parent="1" source="40" edge="1">
                    <mxGeometry relative="1" as="geometry">
                        <mxPoint x="480" y="1240" as="targetPoint"/>
                        <Array as="points">
                            <mxPoint x="750" y="1170"/>
                            <mxPoint x="480" y="1170"/>
                        </Array>
                    </mxGeometry>
                </mxCell>
                <mxCell id="40" value="PARAR_JUEGO = true" style="rounded=0;whiteSpace=wrap;html=1;fillColor=#d0cee2;strokeColor=#56517e;" parent="1" vertex="1">
                    <mxGeometry x="690" y="1040" width="120" height="60" as="geometry"/>
                </mxCell>
                <mxCell id="41" value="true" style="text;html=1;align=center;verticalAlign=middle;resizable=0;points=[];autosize=1;strokeColor=none;fillColor=none;" parent="1" vertex="1">
                    <mxGeometry x="610" y="958" width="40" height="30" as="geometry"/>
                </mxCell>
                <mxCell id="58" style="edgeStyle=none;html=1;" parent="1" source="43" edge="1">
                    <mxGeometry relative="1" as="geometry">
                        <mxPoint x="80" y="1810" as="targetPoint"/>
                        <Array as="points">
                            <mxPoint x="740" y="1530"/>
                            <mxPoint x="490" y="1530"/>
                            <mxPoint x="490" y="1740"/>
                            <mxPoint x="80" y="1750"/>
                        </Array>
                    </mxGeometry>
                </mxCell>
                <mxCell id="43" value="MOVIMIENTO_XX_COHETE" style="rounded=0;whiteSpace=wrap;html=1;fillColor=#d0cee2;strokeColor=#56517e;" parent="1" vertex="1">
                    <mxGeometry x="650" y="1360" width="180" height="60" as="geometry"/>
                </mxCell>
                <mxCell id="63" style="edgeStyle=none;html=1;" parent="1" source="60" edge="1">
                    <mxGeometry relative="1" as="geometry">
                        <mxPoint x="-330" y="1290" as="targetPoint"/>
                        <Array as="points">
                            <mxPoint x="-560" y="1050"/>
                            <mxPoint x="-560" y="1230"/>
                            <mxPoint x="-330" y="1230"/>
                        </Array>
                    </mxGeometry>
                </mxCell>
                <mxCell id="64" style="edgeStyle=none;html=1;entryX=0.5;entryY=0;entryDx=0;entryDy=0;" parent="1" source="60" target="61" edge="1">
                    <mxGeometry relative="1" as="geometry">
                        <Array as="points">
                            <mxPoint x="-90" y="1055"/>
                        </Array>
                    </mxGeometry>
                </mxCell>
                <mxCell id="60" value="event.type == pygame.KEYUP" style="rhombus;whiteSpace=wrap;html=1;fillColor=#b1ddf0;strokeColor=#10739e;" parent="1" vertex="1">
                    <mxGeometry x="-420" y="980" width="150" height="150" as="geometry"/>
                </mxCell>
                <mxCell id="65" style="edgeStyle=none;html=1;" parent="1" edge="1">
                    <mxGeometry relative="1" as="geometry">
                        <mxPoint x="80" y="1810" as="targetPoint"/>
                        <mxPoint x="-90" y="1190" as="sourcePoint"/>
                        <Array as="points">
                            <mxPoint x="-100" y="1160"/>
                            <mxPoint x="-90" y="1230"/>
                            <mxPoint x="-330" y="1230"/>
                            <mxPoint x="-330" y="1740"/>
                            <mxPoint x="80" y="1750"/>
                        </Array>
                    </mxGeometry>
                </mxCell>
                <mxCell id="61" value="MOVIMIENTO_XX_COHETE = -4" style="rounded=0;whiteSpace=wrap;html=1;fillColor=#d0cee2;strokeColor=#56517e;" parent="1" vertex="1">
                    <mxGeometry x="-190" y="1130" width="200" height="50" as="geometry"/>
                </mxCell>
                <mxCell id="69" style="edgeStyle=none;html=1;entryX=0.5;entryY=0;entryDx=0;entryDy=0;" parent="1" source="66" target="68" edge="1">
                    <mxGeometry relative="1" as="geometry">
                        <Array as="points">
                            <mxPoint x="270" y="1885"/>
                        </Array>
                    </mxGeometry>
                </mxCell>
                <mxCell id="66" value="XX_COHETE &amp;lt; -10 or XX_COHETE &amp;gt; ALTURA_VENTANA:" style="rhombus;whiteSpace=wrap;html=1;fillColor=#b1ddf0;strokeColor=#10739e;" parent="1" vertex="1">
                    <mxGeometry y="1810" width="160" height="150" as="geometry"/>
                </mxCell>
                <mxCell id="72" style="edgeStyle=none;html=1;" parent="1" source="68" edge="1">
                    <mxGeometry relative="1" as="geometry">
                        <mxPoint x="90" y="2120" as="targetPoint"/>
                        <Array as="points">
                            <mxPoint x="270" y="2090"/>
                            <mxPoint x="90" y="2090"/>
                        </Array>
                    </mxGeometry>
                </mxCell>
                <mxCell id="68" value="PARAR_JUEGO = True" style="rounded=0;whiteSpace=wrap;html=1;fillColor=#d0cee2;strokeColor=#56517e;" parent="1" vertex="1">
                    <mxGeometry x="210" y="1950" width="120" height="60" as="geometry"/>
                </mxCell>
                <mxCell id="71" style="edgeStyle=none;html=1;" parent="1" source="66" edge="1">
                    <mxGeometry relative="1" as="geometry">
                        <mxPoint x="90" y="2120" as="targetPoint"/>
                        <mxPoint y="1885" as="sourcePoint"/>
                        <Array as="points">
                            <mxPoint x="-80" y="1885"/>
                            <mxPoint x="-80" y="2090"/>
                            <mxPoint x="90" y="2090"/>
                        </Array>
                    </mxGeometry>
                </mxCell>
                <mxCell id="74" style="edgeStyle=none;html=1;" parent="1" source="73" edge="1">
                    <mxGeometry relative="1" as="geometry">
                        <mxPoint x="105" y="2330" as="targetPoint"/>
                    </mxGeometry>
                </mxCell>
                <mxCell id="73" value="PANTALLA.fill(COLOR_FONDO) PANTALLA.blit(IMG_PLANETA_IZQUIERDO, (XX_PLANETA, YY_PLANETA)) PANTALLA.blit(IMG_PLANETA_DERECHO, (XX_PLANETA + XX_ENTRE_PLANETAS, YY_PLANETA + YY_ENTRE_PLANETA)) YY_PLANETA = YY_PLANETA + VELOCIDAD_PLANETAS" style="rounded=0;whiteSpace=wrap;html=1;fillColor=#fad7ac;strokeColor=#b46504;" parent="1" vertex="1">
                    <mxGeometry x="-30" y="2120" width="270" height="160" as="geometry"/>
                </mxCell>
                <mxCell id="79" style="edgeStyle=none;html=1;" parent="1" source="78" edge="1">
                    <mxGeometry relative="1" as="geometry">
                        <mxPoint x="350" y="2450" as="targetPoint"/>
                        <Array as="points">
                            <mxPoint x="350" y="2400"/>
                        </Array>
                    </mxGeometry>
                </mxCell>
                <mxCell id="84" style="edgeStyle=none;html=1;" parent="1" source="78" edge="1">
                    <mxGeometry relative="1" as="geometry">
                        <mxPoint x="120" y="2650" as="targetPoint"/>
                        <Array as="points">
                            <mxPoint x="-90" y="2400"/>
                            <mxPoint x="-90" y="2610"/>
                            <mxPoint x="120" y="2610"/>
                        </Array>
                    </mxGeometry>
                </mxCell>
                <mxCell id="78" value="YY_PLANETA &amp;gt; ANCHURA_VENTANA:" style="rhombus;whiteSpace=wrap;html=1;fillColor=#b1ddf0;strokeColor=#10739e;" parent="1" vertex="1">
                    <mxGeometry x="25" y="2330" width="160" height="130" as="geometry"/>
                </mxCell>
                <mxCell id="80" value="true" style="text;html=1;align=center;verticalAlign=middle;resizable=0;points=[];autosize=1;strokeColor=none;fillColor=none;" parent="1" vertex="1">
                    <mxGeometry x="220" y="2368" width="40" height="30" as="geometry"/>
                </mxCell>
                <mxCell id="85" style="edgeStyle=none;html=1;" parent="1" source="82" edge="1">
                    <mxGeometry relative="1" as="geometry">
                        <mxPoint x="120" y="2650" as="targetPoint"/>
                        <Array as="points">
                            <mxPoint x="350" y="2610"/>
                            <mxPoint x="120" y="2610"/>
                        </Array>
                    </mxGeometry>
                </mxCell>
                <mxCell id="82" value="XX_PLANETA = randint(55, 150) YY_PLANETA = 25 PUNTOS = PUNTOS + 1 MARCADOR = FUENTE.render(str(PUNTOS) + &quot; puntos&quot;, 1, (255, 0, 0))" style="rounded=0;whiteSpace=wrap;html=1;fillColor=#fad7ac;strokeColor=#b46504;" parent="1" vertex="1">
                    <mxGeometry x="250" y="2450" width="200" height="120" as="geometry"/>
                </mxCell>
                <mxCell id="88" style="edgeStyle=none;html=1;" parent="1" source="86" edge="1">
                    <mxGeometry relative="1" as="geometry">
                        <mxPoint x="120" y="2790" as="targetPoint"/>
                    </mxGeometry>
                </mxCell>
                <mxCell id="86" value="PUNTO_INFERIOR_DERECHO_PRIMER_PLANETA_X = XX_PLANETA + ALTURA_PLANETA PUNTO_INFERIOR_DERECHO_PRIMER_PLANETA_Y = YY_PLANETA + ANCHURA_PLANETA" style="rounded=0;whiteSpace=wrap;html=1;fillColor=#fad7ac;strokeColor=#b46504;" parent="1" vertex="1">
                    <mxGeometry x="-50" y="2650" width="340" height="100" as="geometry"/>
                </mxCell>
                <mxCell id="91" style="edgeStyle=none;html=1;" parent="1" source="90" edge="1">
                    <mxGeometry relative="1" as="geometry">
                        <mxPoint x="570" y="2970" as="targetPoint"/>
                        <Array as="points">
                            <mxPoint x="430" y="2905"/>
                            <mxPoint x="570" y="2905"/>
                        </Array>
                    </mxGeometry>
                </mxCell>
                <mxCell id="99" style="edgeStyle=none;html=1;" parent="1" source="90" edge="1">
                    <mxGeometry relative="1" as="geometry">
                        <mxPoint x="120" y="3668" as="targetPoint"/>
                        <Array as="points">
                            <mxPoint x="-300" y="2900"/>
                            <mxPoint x="-300" y="3550"/>
                            <mxPoint x="120" y="3550"/>
                        </Array>
                    </mxGeometry>
                </mxCell>
                <mxCell id="90" value="&amp;nbsp;PUNTO_INFERIOR_DERECHO_PRIMER_PLANETA_X &amp;gt; XX_COHETE:" style="rhombus;whiteSpace=wrap;html=1;fillColor=#b1ddf0;strokeColor=#10739e;" parent="1" vertex="1">
                    <mxGeometry x="-50" y="2790" width="340" height="230" as="geometry"/>
                </mxCell>
                <mxCell id="93" style="edgeStyle=none;html=1;" parent="1" source="92" edge="1">
                    <mxGeometry relative="1" as="geometry">
                        <mxPoint x="910" y="3120" as="targetPoint"/>
                        <Array as="points">
                            <mxPoint x="910" y="3080"/>
                        </Array>
                    </mxGeometry>
                </mxCell>
                <mxCell id="100" style="edgeStyle=none;html=1;" parent="1" source="92" edge="1">
                    <mxGeometry relative="1" as="geometry">
                        <mxPoint x="120" y="3660" as="targetPoint"/>
                        <Array as="points">
                            <mxPoint x="120" y="3080"/>
                            <mxPoint x="120" y="3570"/>
                        </Array>
                    </mxGeometry>
                </mxCell>
                <mxCell id="92" value="&amp;nbsp;PUNTO_INFERIOR_DERECHO_PRIMER_PLANETA_Y &amp;gt; YY_COHETE:" style="rhombus;whiteSpace=wrap;html=1;fillColor=#b1ddf0;strokeColor=#10739e;" parent="1" vertex="1">
                    <mxGeometry x="420" y="2970" width="300" height="220" as="geometry"/>
                </mxCell>
                <mxCell id="96" style="edgeStyle=none;html=1;" parent="1" source="95" edge="1">
                    <mxGeometry relative="1" as="geometry">
                        <mxPoint x="1270" y="3270" as="targetPoint"/>
                        <Array as="points">
                            <mxPoint x="1270" y="3220"/>
                        </Array>
                    </mxGeometry>
                </mxCell>
                <mxCell id="101" style="edgeStyle=none;html=1;" parent="1" source="95" edge="1">
                    <mxGeometry relative="1" as="geometry">
                        <mxPoint x="120" y="3660" as="targetPoint"/>
                        <Array as="points">
                            <mxPoint x="120" y="3215"/>
                        </Array>
                    </mxGeometry>
                </mxCell>
                <mxCell id="95" value="&amp;nbsp;PUNTO_INFERIOR_DERECHO_PRIMER_PLANETA_Y &amp;lt; YY_COHETE + ANCHURA_COHETE:" style="rhombus;whiteSpace=wrap;html=1;fillColor=#b1ddf0;strokeColor=#10739e;" parent="1" vertex="1">
                    <mxGeometry x="740" y="3120" width="330" height="190" as="geometry"/>
                </mxCell>
                <mxCell id="102" style="edgeStyle=none;html=1;" parent="1" source="98" edge="1">
                    <mxGeometry relative="1" as="geometry">
                        <mxPoint x="120" y="3660" as="targetPoint"/>
                        <Array as="points">
                            <mxPoint x="1270" y="3560"/>
                            <mxPoint x="120" y="3550"/>
                            <mxPoint x="120" y="3570"/>
                        </Array>
                    </mxGeometry>
                </mxCell>
                <mxCell id="98" value="PARAR_JUEGO = True" style="rounded=0;whiteSpace=wrap;html=1;fillColor=#d0cee2;strokeColor=#56517e;" parent="1" vertex="1">
                    <mxGeometry x="1210" y="3270" width="120" height="60" as="geometry"/>
                </mxCell>
                <mxCell id="105" style="edgeStyle=none;html=1;" parent="1" source="103" target="106" edge="1">
                    <mxGeometry relative="1" as="geometry">
                        <mxPoint x="127.5" y="3880" as="targetPoint"/>
                    </mxGeometry>
                </mxCell>
                <mxCell id="103" value="PUNTO_INFERIOR_IZQUIERDO_SEGUNDO_PLANETA_X = XX_PLANETA + XX_ENTRE_PLANETAS PUNTO_INFERIOR_IZQUIERDO_SEGUNDO_PLANETA_Y = YY_PLANETA + \ YY_ENTRE_PLANETA + ANCHURA_PLANETA" style="rounded=0;whiteSpace=wrap;html=1;fillColor=#fad7ac;strokeColor=#b46504;" parent="1" vertex="1">
                    <mxGeometry x="-30" y="3660" width="315" height="130" as="geometry"/>
                </mxCell>
                <mxCell id="107" style="edgeStyle=none;html=1;" parent="1" source="106" edge="1">
                    <mxGeometry relative="1" as="geometry">
                        <mxPoint x="610" y="4010" as="targetPoint"/>
                        <Array as="points">
                            <mxPoint x="610" y="3950"/>
                        </Array>
                    </mxGeometry>
                </mxCell>
                <mxCell id="116" style="edgeStyle=none;html=1;" parent="1" source="106" edge="1">
                    <mxGeometry relative="1" as="geometry">
                        <mxPoint x="260" y="5020" as="targetPoint"/>
                        <Array as="points">
                            <mxPoint x="-300" y="3930"/>
                            <mxPoint x="-300" y="4490"/>
                            <mxPoint x="260" y="4490"/>
                        </Array>
                    </mxGeometry>
                </mxCell>
                <mxCell id="106" value="&amp;nbsp;XX_COHETE + ALTURA_COHETE &amp;gt; PUNTO_INFERIOR_IZQUIERDO_SEGUNDO_PLANETA_X:" style="rhombus;whiteSpace=wrap;html=1;fillColor=#b1ddf0;strokeColor=#10739e;" parent="1" vertex="1">
                    <mxGeometry x="-30" y="3810" width="330" height="250" as="geometry"/>
                </mxCell>
                <mxCell id="109" style="edgeStyle=none;html=1;" parent="1" source="108" edge="1">
                    <mxGeometry relative="1" as="geometry">
                        <mxPoint x="1130" y="4200" as="targetPoint"/>
                        <Array as="points">
                            <mxPoint x="1130" y="4140"/>
                        </Array>
                    </mxGeometry>
                </mxCell>
                <mxCell id="118" style="edgeStyle=none;html=1;" parent="1" source="108" edge="1">
                    <mxGeometry relative="1" as="geometry">
                        <mxPoint x="260" y="5020" as="targetPoint"/>
                        <Array as="points">
                            <mxPoint x="260" y="4130"/>
                        </Array>
                    </mxGeometry>
                </mxCell>
                <mxCell id="108" value="XX_COHETE &amp;lt; PUNTO_INFERIOR_IZQUIERDO_SEGUNDO_PLANETA_Y:" style="rhombus;whiteSpace=wrap;html=1;fillColor=#b1ddf0;strokeColor=#10739e;" parent="1" vertex="1">
                    <mxGeometry x="440" y="4010" width="350" height="240" as="geometry"/>
                </mxCell>
                <mxCell id="112" style="edgeStyle=none;html=1;" parent="1" source="111" edge="1">
                    <mxGeometry relative="1" as="geometry">
                        <mxPoint x="1560" y="4440" as="targetPoint"/>
                        <Array as="points">
                            <mxPoint x="1560" y="4320"/>
                        </Array>
                    </mxGeometry>
                </mxCell>
                <mxCell id="117" style="edgeStyle=none;html=1;" parent="1" source="111" edge="1">
                    <mxGeometry relative="1" as="geometry">
                        <mxPoint x="260" y="5020" as="targetPoint"/>
                        <Array as="points">
                            <mxPoint x="260" y="4320"/>
                        </Array>
                    </mxGeometry>
                </mxCell>
                <mxCell id="111" value="XX_COHETE + ANCHURA_COHETE &amp;gt; PUNTO_INFERIOR_IZQUIERDO_SEGUNDO_PLANETA_Y:" style="rhombus;whiteSpace=wrap;html=1;fillColor=#b1ddf0;strokeColor=#10739e;" parent="1" vertex="1">
                    <mxGeometry x="960" y="4200" width="350" height="240" as="geometry"/>
                </mxCell>
                <mxCell id="115" style="edgeStyle=none;html=1;exitX=0.5;exitY=1;exitDx=0;exitDy=0;" parent="1" source="114" edge="1">
                    <mxGeometry relative="1" as="geometry">
                        <mxPoint x="260" y="5020" as="targetPoint"/>
                        <mxPoint x="1555" y="4590" as="sourcePoint"/>
                        <Array as="points">
                            <mxPoint x="1555" y="4640"/>
                            <mxPoint x="740" y="4640"/>
                            <mxPoint x="260" y="4640"/>
                        </Array>
                    </mxGeometry>
                </mxCell>
                <mxCell id="114" value="&lt;font face=&quot;Droid Sans Mono, monospace, monospace&quot; color=&quot;#000000&quot;&gt;&lt;span style=&quot;font-size: 14px; white-space: pre;&quot;&gt;PARAR_JUEGO = True&lt;/span&gt;&lt;/font&gt;" style="rounded=0;whiteSpace=wrap;html=1;fillColor=#d0cee2;strokeColor=#56517e;" parent="1" vertex="1">
                    <mxGeometry x="1440" y="4440" width="240" height="70" as="geometry"/>
                </mxCell>
                <mxCell id="129" style="edgeStyle=none;html=1;entryX=0;entryY=0.5;entryDx=0;entryDy=0;" edge="1" parent="1" source="119" target="23">
                    <mxGeometry relative="1" as="geometry">
                        <mxPoint x="-360" y="1282" as="targetPoint"/>
                        <Array as="points">
                            <mxPoint x="260" y="5270"/>
                            <mxPoint x="-360" y="5270"/>
                            <mxPoint x="-330" y="3070"/>
                            <mxPoint x="-320" y="1930"/>
                            <mxPoint x="-320" y="1320"/>
                            <mxPoint x="-320" y="990"/>
                        </Array>
                    </mxGeometry>
                </mxCell>
                <mxCell id="119" value="XX_COHETE = XX_COHETE + MOVIMIENTO_XX_COHETE PANTALLA.blit(MARCADOR, (20, 580)) PANTALLA.blit(IMG_COHETE, (XX_COHETE, YY_COHETE)) pygame.display.update()" style="whiteSpace=wrap;html=1;aspect=fixed;fillColor=#fad7ac;strokeColor=#b46504;" parent="1" vertex="1">
                    <mxGeometry x="185" y="5010" width="160" height="160" as="geometry"/>
                </mxCell>
                <mxCell id="128" value="FIN" style="ellipse;whiteSpace=wrap;html=1;fillColor=#f8cecc;strokeColor=#b85450;" parent="1" vertex="1">
                    <mxGeometry x="1120" y="950" width="120" height="80" as="geometry"/>
                </mxCell>
            </root>
        </mxGraphModel>
    </diagram>
</mxfile>